<?xml version="1.0" encoding="UTF-8"?>

<!DOCTYPE svg PUBLIC '-//W3C//DTD SVG 1.0//EN' 'http://www.w3.org/TR/2001/REC-SVG-20010904/DTD/svg10.dtd'>
<svg xmlns:xlink="http://www.w3.org/1999/xlink" style="fill-opacity:1; color-rendering:auto; color-interpolation:auto; text-rendering:auto; stroke:black; stroke-linecap:square; stroke-miterlimit:10; shape-rendering:auto; stroke-opacity:1; fill:black; stroke-dasharray:none; font-weight:normal; stroke-width:1; font-family:&apos;Dialog&apos;; font-style:normal; stroke-linejoin:miter; font-size:12; stroke-dashoffset:0; image-rendering:auto;" xmlns="http://www.w3.org/2000/svg">
  <!--Generated by the Batik Graphics2D SVG Generator-->
  <defs id="genericDefs" />
  <g>
    <g style="fill:white; stroke:white;">
      <rect x="0" y="0" width="1627" style="stroke:none;" height="919" />
    </g>
    <g style="text-rendering:optimizeLegibility; font-size:11; font-family:&apos;Monospaced&apos;;" transform="translate(20,20)">
      <line x1="48" x2="48" y1="0" style="fill:none;" y2="780" />
      <line x1="58" x2="58" y1="0" style="fill:none;" y2="780" />
      <path d="M58 0.5 A5 7.5 0 0 0 48 0.5" style="fill:none;" />
      <path d="M58 780.5 A5 7.5 0 0 1 48 780.5" style="fill:none;" />
      <text x="0" y="0" transform="translate(24,800)" style="stroke:none;" xml:space="preserve">Cons-qtl</text>
      <text x="0" y="0" transform="translate(31,820)" style="stroke:none;" xml:space="preserve">SBI-05</text>
      <rect x="3" y="826" width="100" style="fill:none;" rx="5" ry="5" height="4" />
    </g>
    <g transform="translate(20,20)" style="font-size:11; fill-opacity:0.7843; fill:rgb(100,100,100); text-rendering:optimizeLegibility; font-family:&apos;Monospaced&apos;; stroke:rgb(100,100,100); stroke-opacity:0.7843;">
      <rect x="3" y="824" width="100" style="fill:none;" rx="5" ry="5" height="8" />
    </g>
    <g style="text-rendering:optimizeLegibility; font-size:11; font-family:&apos;Monospaced&apos;;" transform="translate(20,20)">
      <line x1="48" x2="58" y1="0" style="fill:none;" y2="0" />
      <text xml:space="preserve" x="118" y="0" style="stroke:none;">0,00       txp65</text>
      <line x1="63" x2="78" y1="0" style="fill:none;" y2="0" />
      <line x1="78" x2="108" y1="0" style="fill:none;" y2="0" />
      <line x1="108" x2="113" y1="0" style="fill:none;" y2="0" />
      <line x1="48" x2="58" y1="0" style="fill:none;" y2="0" />
      <text xml:space="preserve" x="118" y="11" style="stroke:none;">0,00       msbcir329</text>
      <line x1="63" x2="78" y1="0" style="fill:none;" y2="0" />
      <line x1="78" x2="108" y1="0" style="fill:none;" y2="11" />
      <line x1="108" x2="113" y1="11" style="fill:none;" y2="11" />
      <line x1="48" x2="58" y1="48" style="fill:none;" y2="48" />
      <text xml:space="preserve" x="118" y="48" style="stroke:none;">8,60       psb0089</text>
      <line x1="63" x2="78" y1="48" style="fill:none;" y2="48" />
      <line x1="78" x2="108" y1="48" style="fill:none;" y2="48" />
      <line x1="108" x2="113" y1="48" style="fill:none;" y2="48" />
      <line x1="48" x2="58" y1="72" style="fill:none;" y2="72" />
      <text xml:space="preserve" x="118" y="66" style="stroke:none;">12,80      txp94</text>
      <line x1="63" x2="78" y1="72" style="fill:none;" y2="72" />
      <line x1="78" x2="108" y1="72" style="fill:none;" y2="66" />
      <line x1="108" x2="113" y1="66" style="fill:none;" y2="66" />
      <line x1="48" x2="58" y1="86" style="fill:none;" y2="86" />
      <text xml:space="preserve" x="118" y="80" style="stroke:none;">15,30      msbcir248</text>
      <line x1="63" x2="78" y1="86" style="fill:none;" y2="86" />
      <line x1="78" x2="108" y1="86" style="fill:none;" y2="80" />
      <line x1="108" x2="113" y1="80" style="fill:none;" y2="80" />
      <line x1="48" x2="58" y1="88" style="fill:none;" y2="88" />
      <text xml:space="preserve" x="118" y="91" style="stroke:none;">15,50      txs722</text>
      <line x1="63" x2="78" y1="88" style="fill:none;" y2="88" />
      <line x1="78" x2="108" y1="88" style="fill:none;" y2="91" />
      <line x1="108" x2="113" y1="91" style="fill:none;" y2="91" />
      <line x1="48" x2="58" y1="88" style="fill:none;" y2="88" />
      <line x1="48" x2="58" y1="89" style="fill:none;" y2="89" />
      <text xml:space="preserve" x="118" y="104" style="stroke:none;">15,80      gpsb017</text>
      <line x1="63" x2="78" y1="89" style="fill:none;" y2="89" />
      <line x1="78" x2="108" y1="89" style="fill:none;" y2="104" />
      <line x1="108" x2="113" y1="104" style="fill:none;" y2="104" />
      <line x1="48" x2="58" y1="114" style="fill:none;" y2="114" />
      <text xml:space="preserve" x="118" y="116" style="stroke:none;">20,10      txs2072</text>
      <line x1="63" x2="78" y1="114" style="fill:none;" y2="114" />
      <line x1="78" x2="108" y1="114" style="fill:none;" y2="116" />
      <line x1="108" x2="113" y1="116" style="fill:none;" y2="116" />
      <line x1="48" x2="58" y1="130" style="fill:none;" y2="130" />
      <text xml:space="preserve" x="118" y="128" style="stroke:none;">23,00      txp30</text>
      <line x1="63" x2="78" y1="130" style="fill:none;" y2="130" />
      <line x1="78" x2="108" y1="130" style="fill:none;" y2="128" />
      <line x1="108" x2="113" y1="128" style="fill:none;" y2="128" />
      <line x1="48" x2="58" y1="139" style="fill:none;" y2="139" />
      <text xml:space="preserve" x="118" y="140" style="stroke:none;">24,60      txp303</text>
      <line x1="63" x2="78" y1="139" style="fill:none;" y2="139" />
      <line x1="78" x2="108" y1="139" style="fill:none;" y2="140" />
      <line x1="108" x2="113" y1="140" style="fill:none;" y2="140" />
      <line x1="48" x2="58" y1="169" style="fill:none;" y2="169" />
      <text xml:space="preserve" x="118" y="169" style="stroke:none;">29,80      umc52</text>
      <line x1="63" x2="78" y1="169" style="fill:none;" y2="169" />
      <line x1="78" x2="108" y1="169" style="fill:none;" y2="169" />
      <line x1="108" x2="113" y1="169" style="fill:none;" y2="169" />
      <line x1="48" x2="58" y1="208" style="fill:none;" y2="208" />
      <text xml:space="preserve" x="118" y="201" style="stroke:none;">36,61      stgnhsbm2</text>
      <line x1="63" x2="78" y1="208" style="fill:none;" y2="208" />
      <line x1="78" x2="108" y1="208" style="fill:none;" y2="201" />
      <line x1="108" x2="113" y1="201" style="fill:none;" y2="201" />
      <line x1="48" x2="58" y1="231" style="fill:none;" y2="231" />
      <text xml:space="preserve" x="118" y="216" style="stroke:none;">40,76      psb124a</text>
      <line x1="63" x2="78" y1="231" style="fill:none;" y2="231" />
      <line x1="78" x2="108" y1="231" style="fill:none;" y2="216" />
      <line x1="108" x2="113" y1="216" style="fill:none;" y2="216" />
      <line x1="48" x2="58" y1="241" style="fill:none;" y2="241" />
      <text xml:space="preserve" x="118" y="227" style="stroke:none;">42,40      txs713</text>
      <line x1="63" x2="78" y1="241" style="fill:none;" y2="241" />
      <line x1="78" x2="108" y1="241" style="fill:none;" y2="227" />
      <line x1="108" x2="113" y1="227" style="fill:none;" y2="227" />
      <line x1="48" x2="58" y1="241" style="fill:none;" y2="241" />
      <text xml:space="preserve" x="118" y="239" style="stroke:none;">42,40      isu120</text>
      <line x1="63" x2="78" y1="241" style="fill:none;" y2="241" />
      <line x1="78" x2="108" y1="241" style="fill:none;" y2="239" />
      <line x1="108" x2="113" y1="239" style="fill:none;" y2="239" />
      <line x1="48" x2="58" y1="242" style="fill:none;" y2="242" />
      <line x1="48" x2="58" y1="245" style="fill:none;" y2="245" />
      <text xml:space="preserve" x="118" y="252" style="stroke:none;">43,18      csu166C</text>
      <line x1="63" x2="78" y1="245" style="fill:none;" y2="245" />
      <line x1="78" x2="108" y1="245" style="fill:none;" y2="252" />
      <line x1="108" x2="113" y1="252" style="fill:none;" y2="252" />
      <line x1="48" x2="58" y1="250" style="fill:none;" y2="250" />
      <line x1="48" x2="58" y1="259" style="fill:none;" y2="259" />
      <text xml:space="preserve" x="118" y="265" style="stroke:none;">45,70      txp225</text>
      <line x1="63" x2="78" y1="259" style="fill:none;" y2="259" />
      <line x1="78" x2="108" y1="259" style="fill:none;" y2="265" />
      <line x1="108" x2="113" y1="265" style="fill:none;" y2="265" />
      <line x1="48" x2="58" y1="260" style="fill:none;" y2="260" />
      <line x1="48" x2="58" y1="261" style="fill:none;" y2="261" />
      <line x1="48" x2="58" y1="261" style="fill:none;" y2="261" />
      <line x1="48" x2="58" y1="267" style="fill:none;" y2="267" />
      <text xml:space="preserve" x="118" y="280" style="stroke:none;">47,00      txp15</text>
      <line x1="63" x2="78" y1="267" style="fill:none;" y2="267" />
      <line x1="78" x2="108" y1="267" style="fill:none;" y2="280" />
      <line x1="108" x2="113" y1="280" style="fill:none;" y2="280" />
      <line x1="48" x2="58" y1="267" style="fill:none;" y2="267" />
      <line x1="48" x2="58" y1="267" style="fill:none;" y2="267" />
      <line x1="48" x2="58" y1="283" style="fill:none;" y2="283" />
      <text xml:space="preserve" x="118" y="294" style="stroke:none;">49,90      txp299</text>
      <line x1="63" x2="78" y1="283" style="fill:none;" y2="283" />
      <line x1="78" x2="108" y1="283" style="fill:none;" y2="294" />
      <line x1="108" x2="113" y1="294" style="fill:none;" y2="294" />
      <line x1="48" x2="58" y1="288" style="fill:none;" y2="288" />
      <line x1="48" x2="58" y1="302" style="fill:none;" y2="302" />
      <text xml:space="preserve" x="118" y="307" style="stroke:none;">53,21      txs1628</text>
      <line x1="63" x2="78" y1="302" style="fill:none;" y2="302" />
      <line x1="78" x2="108" y1="302" style="fill:none;" y2="307" />
      <line x1="108" x2="113" y1="307" style="fill:none;" y2="307" />
      <line x1="48" x2="58" y1="328" style="fill:none;" y2="328" />
      <text xml:space="preserve" x="118" y="327" style="stroke:none;">57,70      txs387</text>
      <line x1="63" x2="78" y1="328" style="fill:none;" y2="328" />
      <line x1="78" x2="108" y1="328" style="fill:none;" y2="327" />
      <line x1="108" x2="113" y1="327" style="fill:none;" y2="327" />
      <line x1="48" x2="58" y1="328" style="fill:none;" y2="328" />
      <text xml:space="preserve" x="118" y="338" style="stroke:none;">57,84      psb0638</text>
      <line x1="63" x2="78" y1="328" style="fill:none;" y2="328" />
      <line x1="78" x2="108" y1="328" style="fill:none;" y2="338" />
      <line x1="108" x2="113" y1="338" style="fill:none;" y2="338" />
      <line x1="48" x2="58" y1="445" style="fill:none;" y2="445" />
      <text xml:space="preserve" x="118" y="444" style="stroke:none;">78,35      txs1718</text>
      <line x1="63" x2="78" y1="445" style="fill:none;" y2="445" />
      <line x1="78" x2="108" y1="445" style="fill:none;" y2="444" />
      <line x1="108" x2="113" y1="444" style="fill:none;" y2="444" />
      <line x1="48" x2="58" y1="447" style="fill:none;" y2="447" />
      <text xml:space="preserve" x="118" y="455" style="stroke:none;">78,80      txp23</text>
      <line x1="63" x2="78" y1="447" style="fill:none;" y2="447" />
      <line x1="78" x2="108" y1="447" style="fill:none;" y2="455" />
      <line x1="108" x2="113" y1="455" style="fill:none;" y2="455" />
      <line x1="48" x2="58" y1="530" style="fill:none;" y2="530" />
      <text xml:space="preserve" x="118" y="528" style="stroke:none;">93,30      kaf3</text>
      <line x1="63" x2="78" y1="530" style="fill:none;" y2="530" />
      <line x1="78" x2="108" y1="530" style="fill:none;" y2="528" />
      <line x1="108" x2="113" y1="528" style="fill:none;" y2="528" />
      <line x1="48" x2="58" y1="536" style="fill:none;" y2="536" />
      <text xml:space="preserve" x="118" y="539" style="stroke:none;">94,30      kaf2</text>
      <line x1="63" x2="78" y1="536" style="fill:none;" y2="536" />
      <line x1="78" x2="108" y1="536" style="fill:none;" y2="539" />
      <line x1="108" x2="113" y1="539" style="fill:none;" y2="539" />
      <line x1="48" x2="58" y1="552" style="fill:none;" y2="552" />
      <text xml:space="preserve" x="118" y="551" style="stroke:none;">97,13      psb0619</text>
      <line x1="63" x2="78" y1="552" style="fill:none;" y2="552" />
      <line x1="78" x2="108" y1="552" style="fill:none;" y2="551" />
      <line x1="108" x2="113" y1="551" style="fill:none;" y2="551" />
      <line x1="48" x2="58" y1="566" style="fill:none;" y2="566" />
      <text xml:space="preserve" x="118" y="566" style="stroke:none;">99,70      psb0240</text>
      <line x1="63" x2="78" y1="566" style="fill:none;" y2="566" />
      <line x1="78" x2="108" y1="566" style="fill:none;" y2="566" />
      <line x1="108" x2="113" y1="566" style="fill:none;" y2="566" />
      <line x1="48" x2="58" y1="594" style="fill:none;" y2="594" />
      <text xml:space="preserve" x="118" y="592" style="stroke:none;">104,60     txp123</text>
      <line x1="63" x2="78" y1="594" style="fill:none;" y2="594" />
      <line x1="78" x2="108" y1="594" style="fill:none;" y2="592" />
      <line x1="108" x2="113" y1="592" style="fill:none;" y2="592" />
      <line x1="48" x2="58" y1="596" style="fill:none;" y2="596" />
      <text xml:space="preserve" x="118" y="603" style="stroke:none;">105,00     txp262</text>
      <line x1="63" x2="78" y1="596" style="fill:none;" y2="596" />
      <line x1="78" x2="108" y1="596" style="fill:none;" y2="603" />
      <line x1="108" x2="113" y1="603" style="fill:none;" y2="603" />
      <line x1="48" x2="58" y1="607" style="fill:none;" y2="607" />
      <text xml:space="preserve" x="118" y="615" style="stroke:none;">106,90     txp136</text>
      <line x1="63" x2="78" y1="607" style="fill:none;" y2="607" />
      <line x1="78" x2="108" y1="607" style="fill:none;" y2="615" />
      <line x1="108" x2="113" y1="615" style="fill:none;" y2="615" />
      <line x1="48" x2="58" y1="649" style="fill:none;" y2="649" />
      <text xml:space="preserve" x="118" y="649" style="stroke:none;">114,20     gpsb032</text>
      <line x1="63" x2="78" y1="649" style="fill:none;" y2="649" />
      <line x1="78" x2="108" y1="649" style="fill:none;" y2="649" />
      <line x1="108" x2="113" y1="649" style="fill:none;" y2="649" />
      <line x1="48" x2="58" y1="682" style="fill:none;" y2="682" />
      <text xml:space="preserve" x="118" y="682" style="stroke:none;">120,12     isu60Aa</text>
      <line x1="63" x2="78" y1="682" style="fill:none;" y2="682" />
      <line x1="78" x2="108" y1="682" style="fill:none;" y2="682" />
      <line x1="108" x2="113" y1="682" style="fill:none;" y2="682" />
      <line x1="48" x2="58" y1="712" style="fill:none;" y2="712" />
      <text xml:space="preserve" x="118" y="712" style="stroke:none;">125,34     psb0527</text>
      <line x1="63" x2="78" y1="712" style="fill:none;" y2="712" />
      <line x1="78" x2="108" y1="712" style="fill:none;" y2="712" />
      <line x1="108" x2="113" y1="712" style="fill:none;" y2="712" />
      <line x1="48" x2="58" y1="733" style="fill:none;" y2="733" />
      <text xml:space="preserve" x="118" y="733" style="stroke:none;">128,95     psb0343</text>
      <line x1="63" x2="78" y1="733" style="fill:none;" y2="733" />
      <line x1="78" x2="108" y1="733" style="fill:none;" y2="733" />
      <line x1="108" x2="113" y1="733" style="fill:none;" y2="733" />
      <line x1="48" x2="58" y1="780" style="fill:none;" y2="780" />
      <text xml:space="preserve" x="118" y="780" style="stroke:none;">137,20     isu60Ab</text>
      <line x1="63" x2="78" y1="780" style="fill:none;" y2="780" />
      <line x1="78" x2="108" y1="780" style="fill:none;" y2="780" />
      <line x1="108" x2="113" y1="780" style="fill:none;" y2="780" />
      <line x1="0" x2="2" y1="245" style="fill:rgb(51,51,0); stroke:none;" y2="245" />
      <text x="0" y="0" transform="translate(0,245) rotate(-90)" style="fill:rgb(51,51,0); stroke:none;" xml:space="preserve"></text>
      <rect x="-7" y="269" width="7" style="fill:rgb(153,51,0); stroke:none;" height="1" />
      <line x1="12" x2="14" y1="244" style="fill:rgb(51,51,0); stroke:none;" y2="244" />
      <text x="0" y="0" transform="translate(12,244) rotate(-90)" style="fill:rgb(51,51,0); stroke:none;" xml:space="preserve"></text>
      <rect x="5" y="269" width="7" style="fill:rgb(153,51,0); stroke:none;" height="1" />
      <line x1="36" x2="38" y1="242" style="fill:rgb(51,51,0); stroke:none;" y2="242" />
      <text x="0" y="0" transform="translate(36,242) rotate(-90)" style="fill:rgb(51,51,0); stroke:none;" xml:space="preserve"></text>
      <rect x="30" y="269" width="6" style="fill:rgb(153,51,0); stroke:none;" height="1" />
      <rect x="24" y="235" width="2" style="fill:rgb(51,51,0); stroke:none;" height="100" />
      <text x="0" y="0" transform="translate(24,235) rotate(-90)" style="fill:rgb(51,51,0); stroke:none;" xml:space="preserve"></text>
      <rect x="20" y="285" width="4" style="fill:rgb(153,51,0); stroke:none;" height="1" />
      <rect x="36" y="389" width="2" style="fill:rgb(51,51,0); stroke:none;" height="185" />
      <text x="0" y="0" transform="translate(36,389) rotate(-90)" style="fill:rgb(51,51,0); stroke:none;" xml:space="preserve"></text>
      <rect x="31" y="481" width="5" style="fill:rgb(153,51,0); stroke:none;" height="1" />
    </g>
    <g transform="translate(20,20)" style="font-size:11; fill-opacity:0.5569; fill:rgb(51,51,0); text-rendering:optimizeLegibility; font-family:&apos;Monospaced&apos;; stroke:rgb(51,51,0); stroke-opacity:0.5569;">
      <rect x="49" y="269" width="9" style="stroke:none;" height="13" />
    </g>
    <g style="text-rendering:optimizeLegibility; font-size:11; font-family:&apos;Monospaced&apos;;" transform="translate(334,20)">
      <line x1="48" x2="48" y1="0" style="fill:none;" y2="780" />
      <line x1="58" x2="58" y1="0" style="fill:none;" y2="780" />
      <path d="M58 0.5 A5 7.5 0 0 0 48 0.5" style="fill:none;" />
      <path d="M58 780.5 A5 7.5 0 0 1 48 780.5" style="fill:none;" />
      <text x="0" y="0" transform="translate(24,800)" style="stroke:none;" xml:space="preserve">Cons-qtl</text>
      <text x="0" y="0" transform="translate(31,820)" style="stroke:none;" xml:space="preserve">SBI-05</text>
      <rect x="3" y="826" width="100" style="fill:none;" rx="5" ry="5" height="4" />
    </g>
    <g transform="translate(334,20)" style="font-size:11; fill-opacity:0.7843; fill:rgb(100,100,100); text-rendering:optimizeLegibility; font-family:&apos;Monospaced&apos;; stroke:rgb(100,100,100); stroke-opacity:0.7843;">
      <rect x="3" y="824" width="100" style="fill:none;" rx="5" ry="5" height="8" />
    </g>
    <g style="text-rendering:optimizeLegibility; font-size:11; font-family:&apos;Monospaced&apos;;" transform="translate(334,20)">
      <line x1="48" x2="58" y1="0" style="fill:none;" y2="0" />
      <text xml:space="preserve" x="118" y="0" style="stroke:none;">0,00       txp65</text>
      <line x1="63" x2="78" y1="0" style="fill:none;" y2="0" />
      <line x1="78" x2="108" y1="0" style="fill:none;" y2="0" />
      <line x1="108" x2="113" y1="0" style="fill:none;" y2="0" />
      <line x1="48" x2="58" y1="0" style="fill:none;" y2="0" />
      <text xml:space="preserve" x="118" y="11" style="stroke:none;">0,00       msbcir329</text>
      <line x1="63" x2="78" y1="0" style="fill:none;" y2="0" />
      <line x1="78" x2="108" y1="0" style="fill:none;" y2="11" />
      <line x1="108" x2="113" y1="11" style="fill:none;" y2="11" />
      <line x1="48" x2="58" y1="48" style="fill:none;" y2="48" />
      <text xml:space="preserve" x="118" y="48" style="stroke:none;">8,60       psb0089</text>
      <line x1="63" x2="78" y1="48" style="fill:none;" y2="48" />
      <line x1="78" x2="108" y1="48" style="fill:none;" y2="48" />
      <line x1="108" x2="113" y1="48" style="fill:none;" y2="48" />
      <line x1="48" x2="58" y1="72" style="fill:none;" y2="72" />
      <text xml:space="preserve" x="118" y="66" style="stroke:none;">12,80      txp94</text>
      <line x1="63" x2="78" y1="72" style="fill:none;" y2="72" />
      <line x1="78" x2="108" y1="72" style="fill:none;" y2="66" />
      <line x1="108" x2="113" y1="66" style="fill:none;" y2="66" />
      <line x1="48" x2="58" y1="86" style="fill:none;" y2="86" />
      <text xml:space="preserve" x="118" y="80" style="stroke:none;">15,30      msbcir248</text>
      <line x1="63" x2="78" y1="86" style="fill:none;" y2="86" />
      <line x1="78" x2="108" y1="86" style="fill:none;" y2="80" />
      <line x1="108" x2="113" y1="80" style="fill:none;" y2="80" />
      <line x1="48" x2="58" y1="88" style="fill:none;" y2="88" />
      <text xml:space="preserve" x="118" y="91" style="stroke:none;">15,50      txs722</text>
      <line x1="63" x2="78" y1="88" style="fill:none;" y2="88" />
      <line x1="78" x2="108" y1="88" style="fill:none;" y2="91" />
      <line x1="108" x2="113" y1="91" style="fill:none;" y2="91" />
      <line x1="48" x2="58" y1="88" style="fill:none;" y2="88" />
      <line x1="48" x2="58" y1="89" style="fill:none;" y2="89" />
      <text xml:space="preserve" x="118" y="104" style="stroke:none;">15,80      gpsb017</text>
      <line x1="63" x2="78" y1="89" style="fill:none;" y2="89" />
      <line x1="78" x2="108" y1="89" style="fill:none;" y2="104" />
      <line x1="108" x2="113" y1="104" style="fill:none;" y2="104" />
      <line x1="48" x2="58" y1="114" style="fill:none;" y2="114" />
      <text xml:space="preserve" x="118" y="116" style="stroke:none;">20,10      txs2072</text>
      <line x1="63" x2="78" y1="114" style="fill:none;" y2="114" />
      <line x1="78" x2="108" y1="114" style="fill:none;" y2="116" />
      <line x1="108" x2="113" y1="116" style="fill:none;" y2="116" />
      <line x1="48" x2="58" y1="130" style="fill:none;" y2="130" />
      <text xml:space="preserve" x="118" y="128" style="stroke:none;">23,00      txp30</text>
      <line x1="63" x2="78" y1="130" style="fill:none;" y2="130" />
      <line x1="78" x2="108" y1="130" style="fill:none;" y2="128" />
      <line x1="108" x2="113" y1="128" style="fill:none;" y2="128" />
      <line x1="48" x2="58" y1="139" style="fill:none;" y2="139" />
      <text xml:space="preserve" x="118" y="140" style="stroke:none;">24,60      txp303</text>
      <line x1="63" x2="78" y1="139" style="fill:none;" y2="139" />
      <line x1="78" x2="108" y1="139" style="fill:none;" y2="140" />
      <line x1="108" x2="113" y1="140" style="fill:none;" y2="140" />
      <line x1="48" x2="58" y1="169" style="fill:none;" y2="169" />
      <text xml:space="preserve" x="118" y="169" style="stroke:none;">29,80      umc52</text>
      <line x1="63" x2="78" y1="169" style="fill:none;" y2="169" />
      <line x1="78" x2="108" y1="169" style="fill:none;" y2="169" />
      <line x1="108" x2="113" y1="169" style="fill:none;" y2="169" />
      <line x1="48" x2="58" y1="208" style="fill:none;" y2="208" />
      <text xml:space="preserve" x="118" y="201" style="stroke:none;">36,61      stgnhsbm2</text>
      <line x1="63" x2="78" y1="208" style="fill:none;" y2="208" />
      <line x1="78" x2="108" y1="208" style="fill:none;" y2="201" />
      <line x1="108" x2="113" y1="201" style="fill:none;" y2="201" />
      <line x1="48" x2="58" y1="231" style="fill:none;" y2="231" />
      <text xml:space="preserve" x="118" y="216" style="stroke:none;">40,76      psb124a</text>
      <line x1="63" x2="78" y1="231" style="fill:none;" y2="231" />
      <line x1="78" x2="108" y1="231" style="fill:none;" y2="216" />
      <line x1="108" x2="113" y1="216" style="fill:none;" y2="216" />
      <line x1="48" x2="58" y1="241" style="fill:none;" y2="241" />
      <text xml:space="preserve" x="118" y="227" style="stroke:none;">42,40      txs713</text>
      <line x1="63" x2="78" y1="241" style="fill:none;" y2="241" />
      <line x1="78" x2="108" y1="241" style="fill:none;" y2="227" />
      <line x1="108" x2="113" y1="227" style="fill:none;" y2="227" />
      <line x1="48" x2="58" y1="241" style="fill:none;" y2="241" />
      <text xml:space="preserve" x="118" y="239" style="stroke:none;">42,40      isu120</text>
      <line x1="63" x2="78" y1="241" style="fill:none;" y2="241" />
      <line x1="78" x2="108" y1="241" style="fill:none;" y2="239" />
      <line x1="108" x2="113" y1="239" style="fill:none;" y2="239" />
      <line x1="48" x2="58" y1="242" style="fill:none;" y2="242" />
      <line x1="48" x2="58" y1="245" style="fill:none;" y2="245" />
      <text xml:space="preserve" x="118" y="252" style="stroke:none;">43,18      csu166C</text>
      <line x1="63" x2="78" y1="245" style="fill:none;" y2="245" />
      <line x1="78" x2="108" y1="245" style="fill:none;" y2="252" />
      <line x1="108" x2="113" y1="252" style="fill:none;" y2="252" />
      <line x1="48" x2="58" y1="250" style="fill:none;" y2="250" />
      <line x1="48" x2="58" y1="259" style="fill:none;" y2="259" />
      <text xml:space="preserve" x="118" y="265" style="stroke:none;">45,70      txp225</text>
      <line x1="63" x2="78" y1="259" style="fill:none;" y2="259" />
      <line x1="78" x2="108" y1="259" style="fill:none;" y2="265" />
      <line x1="108" x2="113" y1="265" style="fill:none;" y2="265" />
      <line x1="48" x2="58" y1="260" style="fill:none;" y2="260" />
      <line x1="48" x2="58" y1="261" style="fill:none;" y2="261" />
      <line x1="48" x2="58" y1="261" style="fill:none;" y2="261" />
      <line x1="48" x2="58" y1="267" style="fill:none;" y2="267" />
      <text xml:space="preserve" x="118" y="280" style="stroke:none;">47,00      txp15</text>
      <line x1="63" x2="78" y1="267" style="fill:none;" y2="267" />
      <line x1="78" x2="108" y1="267" style="fill:none;" y2="280" />
      <line x1="108" x2="113" y1="280" style="fill:none;" y2="280" />
      <line x1="48" x2="58" y1="267" style="fill:none;" y2="267" />
      <line x1="48" x2="58" y1="267" style="fill:none;" y2="267" />
      <line x1="48" x2="58" y1="283" style="fill:none;" y2="283" />
      <text xml:space="preserve" x="118" y="294" style="stroke:none;">49,90      txp299</text>
      <line x1="63" x2="78" y1="283" style="fill:none;" y2="283" />
      <line x1="78" x2="108" y1="283" style="fill:none;" y2="294" />
      <line x1="108" x2="113" y1="294" style="fill:none;" y2="294" />
      <line x1="48" x2="58" y1="288" style="fill:none;" y2="288" />
      <line x1="48" x2="58" y1="302" style="fill:none;" y2="302" />
      <text xml:space="preserve" x="118" y="307" style="stroke:none;">53,21      txs1628</text>
      <line x1="63" x2="78" y1="302" style="fill:none;" y2="302" />
      <line x1="78" x2="108" y1="302" style="fill:none;" y2="307" />
      <line x1="108" x2="113" y1="307" style="fill:none;" y2="307" />
      <line x1="48" x2="58" y1="328" style="fill:none;" y2="328" />
      <text xml:space="preserve" x="118" y="327" style="stroke:none;">57,70      txs387</text>
      <line x1="63" x2="78" y1="328" style="fill:none;" y2="328" />
      <line x1="78" x2="108" y1="328" style="fill:none;" y2="327" />
      <line x1="108" x2="113" y1="327" style="fill:none;" y2="327" />
      <line x1="48" x2="58" y1="328" style="fill:none;" y2="328" />
      <text xml:space="preserve" x="118" y="338" style="stroke:none;">57,84      psb0638</text>
      <line x1="63" x2="78" y1="328" style="fill:none;" y2="328" />
      <line x1="78" x2="108" y1="328" style="fill:none;" y2="338" />
      <line x1="108" x2="113" y1="338" style="fill:none;" y2="338" />
      <line x1="48" x2="58" y1="445" style="fill:none;" y2="445" />
      <text xml:space="preserve" x="118" y="444" style="stroke:none;">78,35      txs1718</text>
      <line x1="63" x2="78" y1="445" style="fill:none;" y2="445" />
      <line x1="78" x2="108" y1="445" style="fill:none;" y2="444" />
      <line x1="108" x2="113" y1="444" style="fill:none;" y2="444" />
      <line x1="48" x2="58" y1="447" style="fill:none;" y2="447" />
      <text xml:space="preserve" x="118" y="455" style="stroke:none;">78,80      txp23</text>
      <line x1="63" x2="78" y1="447" style="fill:none;" y2="447" />
      <line x1="78" x2="108" y1="447" style="fill:none;" y2="455" />
      <line x1="108" x2="113" y1="455" style="fill:none;" y2="455" />
      <line x1="48" x2="58" y1="530" style="fill:none;" y2="530" />
      <text xml:space="preserve" x="118" y="528" style="stroke:none;">93,30      kaf3</text>
      <line x1="63" x2="78" y1="530" style="fill:none;" y2="530" />
      <line x1="78" x2="108" y1="530" style="fill:none;" y2="528" />
      <line x1="108" x2="113" y1="528" style="fill:none;" y2="528" />
      <line x1="48" x2="58" y1="536" style="fill:none;" y2="536" />
      <text xml:space="preserve" x="118" y="539" style="stroke:none;">94,30      kaf2</text>
      <line x1="63" x2="78" y1="536" style="fill:none;" y2="536" />
      <line x1="78" x2="108" y1="536" style="fill:none;" y2="539" />
      <line x1="108" x2="113" y1="539" style="fill:none;" y2="539" />
      <line x1="48" x2="58" y1="552" style="fill:none;" y2="552" />
      <text xml:space="preserve" x="118" y="551" style="stroke:none;">97,13      psb0619</text>
      <line x1="63" x2="78" y1="552" style="fill:none;" y2="552" />
      <line x1="78" x2="108" y1="552" style="fill:none;" y2="551" />
      <line x1="108" x2="113" y1="551" style="fill:none;" y2="551" />
      <line x1="48" x2="58" y1="566" style="fill:none;" y2="566" />
      <text xml:space="preserve" x="118" y="566" style="stroke:none;">99,70      psb0240</text>
      <line x1="63" x2="78" y1="566" style="fill:none;" y2="566" />
      <line x1="78" x2="108" y1="566" style="fill:none;" y2="566" />
      <line x1="108" x2="113" y1="566" style="fill:none;" y2="566" />
      <line x1="48" x2="58" y1="594" style="fill:none;" y2="594" />
      <text xml:space="preserve" x="118" y="592" style="stroke:none;">104,60     txp123</text>
      <line x1="63" x2="78" y1="594" style="fill:none;" y2="594" />
      <line x1="78" x2="108" y1="594" style="fill:none;" y2="592" />
      <line x1="108" x2="113" y1="592" style="fill:none;" y2="592" />
      <line x1="48" x2="58" y1="596" style="fill:none;" y2="596" />
      <text xml:space="preserve" x="118" y="603" style="stroke:none;">105,00     txp262</text>
      <line x1="63" x2="78" y1="596" style="fill:none;" y2="596" />
      <line x1="78" x2="108" y1="596" style="fill:none;" y2="603" />
      <line x1="108" x2="113" y1="603" style="fill:none;" y2="603" />
      <line x1="48" x2="58" y1="607" style="fill:none;" y2="607" />
      <text xml:space="preserve" x="118" y="615" style="stroke:none;">106,90     txp136</text>
      <line x1="63" x2="78" y1="607" style="fill:none;" y2="607" />
      <line x1="78" x2="108" y1="607" style="fill:none;" y2="615" />
      <line x1="108" x2="113" y1="615" style="fill:none;" y2="615" />
      <line x1="48" x2="58" y1="649" style="fill:none;" y2="649" />
      <text xml:space="preserve" x="118" y="649" style="stroke:none;">114,20     gpsb032</text>
      <line x1="63" x2="78" y1="649" style="fill:none;" y2="649" />
      <line x1="78" x2="108" y1="649" style="fill:none;" y2="649" />
      <line x1="108" x2="113" y1="649" style="fill:none;" y2="649" />
      <line x1="48" x2="58" y1="682" style="fill:none;" y2="682" />
      <text xml:space="preserve" x="118" y="682" style="stroke:none;">120,12     isu60Aa</text>
      <line x1="63" x2="78" y1="682" style="fill:none;" y2="682" />
      <line x1="78" x2="108" y1="682" style="fill:none;" y2="682" />
      <line x1="108" x2="113" y1="682" style="fill:none;" y2="682" />
      <line x1="48" x2="58" y1="712" style="fill:none;" y2="712" />
      <text xml:space="preserve" x="118" y="712" style="stroke:none;">125,34     psb0527</text>
      <line x1="63" x2="78" y1="712" style="fill:none;" y2="712" />
      <line x1="78" x2="108" y1="712" style="fill:none;" y2="712" />
      <line x1="108" x2="113" y1="712" style="fill:none;" y2="712" />
      <line x1="48" x2="58" y1="733" style="fill:none;" y2="733" />
      <text xml:space="preserve" x="118" y="733" style="stroke:none;">128,95     psb0343</text>
      <line x1="63" x2="78" y1="733" style="fill:none;" y2="733" />
      <line x1="78" x2="108" y1="733" style="fill:none;" y2="733" />
      <line x1="108" x2="113" y1="733" style="fill:none;" y2="733" />
      <line x1="48" x2="58" y1="780" style="fill:none;" y2="780" />
      <text xml:space="preserve" x="118" y="780" style="stroke:none;">137,20     isu60Ab</text>
      <line x1="63" x2="78" y1="780" style="fill:none;" y2="780" />
      <line x1="78" x2="108" y1="780" style="fill:none;" y2="780" />
      <line x1="108" x2="113" y1="780" style="fill:none;" y2="780" />
      <rect x="0" y="245" width="2" style="fill:rgb(153,51,0); stroke:none;" height="49" />
      <text x="0" y="0" transform="translate(0,245) rotate(-90)" style="fill:rgb(153,51,0); stroke:none;" xml:space="preserve"></text>
      <rect x="-7" y="269" width="7" style="fill:rgb(153,51,0); stroke:none;" height="1" />
      <rect x="12" y="244" width="2" style="fill:rgb(153,51,0); stroke:none;" height="50" />
      <text x="0" y="0" transform="translate(12,244) rotate(-90)" style="fill:rgb(153,51,0); stroke:none;" xml:space="preserve"></text>
      <rect x="5" y="269" width="7" style="fill:rgb(153,51,0); stroke:none;" height="1" />
      <rect x="36" y="242" width="2" style="fill:rgb(153,51,0); stroke:none;" height="55" />
      <text x="0" y="0" transform="translate(36,242) rotate(-90)" style="fill:rgb(153,51,0); stroke:none;" xml:space="preserve"></text>
      <rect x="30" y="269" width="6" style="fill:rgb(153,51,0); stroke:none;" height="1" />
      <rect x="24" y="235" width="2" style="fill:rgb(153,51,0); stroke:none;" height="100" />
      <text x="0" y="0" transform="translate(24,235) rotate(-90)" style="fill:rgb(153,51,0); stroke:none;" xml:space="preserve"></text>
      <rect x="20" y="285" width="4" style="fill:rgb(153,51,0); stroke:none;" height="1" />
      <rect x="36" y="389" width="2" style="fill:rgb(153,51,0); stroke:none;" height="185" />
      <text x="0" y="0" transform="translate(36,389) rotate(-90)" style="fill:rgb(153,51,0); stroke:none;" xml:space="preserve"></text>
      <rect x="31" y="481" width="5" style="fill:rgb(153,51,0); stroke:none;" height="1" />
    </g>
  </g>
</svg>
