<?xml version="1.0" encoding="UTF-8"?>

<!DOCTYPE svg PUBLIC '-//W3C//DTD SVG 1.0//EN' 'http://www.w3.org/TR/2001/REC-SVG-20010904/DTD/svg10.dtd'>
<svg xmlns:xlink="http://www.w3.org/1999/xlink" style="fill-opacity:1; color-rendering:auto; color-interpolation:auto; text-rendering:auto; stroke:black; stroke-linecap:square; stroke-miterlimit:10; shape-rendering:auto; stroke-opacity:1; fill:black; stroke-dasharray:none; font-weight:normal; stroke-width:1; font-family:&apos;Dialog&apos;; font-style:normal; stroke-linejoin:miter; font-size:12; stroke-dashoffset:0; image-rendering:auto;" xmlns="http://www.w3.org/2000/svg">
  <!--Generated by the Batik Graphics2D SVG Generator-->
  <defs id="genericDefs" />
  <g>
    <g style="fill:white; stroke:white;">
      <rect x="0" y="0" width="1627" style="stroke:none;" height="919" />
    </g>
    <g style="text-rendering:optimizeLegibility; font-size:11; font-family:&apos;Monospaced&apos;;" transform="translate(20,20)">
      <line x1="36" x2="36" y1="0" style="fill:none;" y2="840" />
      <line x1="46" x2="46" y1="0" style="fill:none;" y2="840" />
      <path d="M46 0.5 A5 7.5 0 0 0 36 0.5" style="fill:none;" />
      <path d="M46 840.5 A5 7.5 0 0 1 36 840.5" style="fill:none;" />
      <text x="0" y="0" transform="translate(19,860)" style="stroke:none;" xml:space="preserve">SBI-08</text>
      <rect x="-9" y="866" width="100" style="fill:none;" rx="5" ry="5" height="4" />
    </g>
    <g transform="translate(20,20)" style="font-size:11; fill-opacity:0.7843; fill:rgb(100,100,100); text-rendering:optimizeLegibility; font-family:&apos;Monospaced&apos;; stroke:rgb(100,100,100); stroke-opacity:0.7843;">
      <rect x="-9" y="864" width="100" style="fill:none;" rx="5" ry="5" height="8" />
    </g>
    <g style="text-rendering:optimizeLegibility; font-size:11; font-family:&apos;Monospaced&apos;;" transform="translate(20,20)">
      <line x1="36" x2="46" y1="0" style="fill:none;" y2="0" />
      <text xml:space="preserve" x="106" y="0" style="stroke:none;">0,00       txp273</text>
      <line x1="51" x2="66" y1="0" style="fill:none;" y2="0" />
      <line x1="66" x2="96" y1="0" style="fill:none;" y2="0" />
      <line x1="96" x2="101" y1="0" style="fill:none;" y2="0" />
      <line x1="36" x2="46" y1="68" style="fill:none;" y2="68" />
      <text xml:space="preserve" x="106" y="67" style="stroke:none;">12,28      spb6248</text>
      <line x1="51" x2="66" y1="68" style="fill:none;" y2="68" />
      <line x1="66" x2="96" y1="68" style="fill:none;" y2="67" />
      <line x1="96" x2="101" y1="67" style="fill:none;" y2="67" />
      <line x1="36" x2="46" y1="76" style="fill:none;" y2="76" />
      <text xml:space="preserve" x="106" y="78" style="stroke:none;">13,68      spb2956</text>
      <line x1="51" x2="66" y1="76" style="fill:none;" y2="76" />
      <line x1="66" x2="96" y1="76" style="fill:none;" y2="78" />
      <line x1="96" x2="101" y1="78" style="fill:none;" y2="78" />
      <line x1="36" x2="46" y1="118" style="fill:none;" y2="118" />
      <text xml:space="preserve" x="106" y="116" style="stroke:none;">21,06      spb6589</text>
      <line x1="51" x2="66" y1="118" style="fill:none;" y2="118" />
      <line x1="66" x2="96" y1="118" style="fill:none;" y2="116" />
      <line x1="96" x2="101" y1="116" style="fill:none;" y2="116" />
      <line x1="36" x2="46" y1="132" style="fill:none;" y2="132" />
      <text xml:space="preserve" x="106" y="130" style="stroke:none;">23,62      spb0703</text>
      <line x1="51" x2="66" y1="132" style="fill:none;" y2="132" />
      <line x1="66" x2="96" y1="132" style="fill:none;" y2="130" />
      <line x1="96" x2="101" y1="130" style="fill:none;" y2="130" />
      <line x1="36" x2="46" y1="138" style="fill:none;" y2="138" />
      <text xml:space="preserve" x="106" y="141" style="stroke:none;">24,68      m341800</text>
      <line x1="51" x2="66" y1="138" style="fill:none;" y2="138" />
      <line x1="66" x2="96" y1="138" style="fill:none;" y2="141" />
      <line x1="96" x2="101" y1="141" style="fill:none;" y2="141" />
      <line x1="36" x2="46" y1="147" style="fill:none;" y2="147" />
      <text xml:space="preserve" x="106" y="153" style="stroke:none;">26,30      bnl304</text>
      <line x1="51" x2="66" y1="147" style="fill:none;" y2="147" />
      <line x1="66" x2="96" y1="147" style="fill:none;" y2="153" />
      <line x1="96" x2="101" y1="153" style="fill:none;" y2="153" />
      <line x1="36" x2="46" y1="174" style="fill:none;" y2="174" />
      <text xml:space="preserve" x="106" y="174" style="stroke:none;">31,05      spb0763</text>
      <line x1="51" x2="66" y1="174" style="fill:none;" y2="174" />
      <line x1="66" x2="96" y1="174" style="fill:none;" y2="174" />
      <line x1="96" x2="101" y1="174" style="fill:none;" y2="174" />
      <line x1="36" x2="46" y1="187" style="fill:none;" y2="187" />
      <text xml:space="preserve" x="106" y="187" style="stroke:none;">33,42      spb1130</text>
      <line x1="51" x2="66" y1="187" style="fill:none;" y2="187" />
      <line x1="66" x2="96" y1="187" style="fill:none;" y2="187" />
      <line x1="96" x2="101" y1="187" style="fill:none;" y2="187" />
      <line x1="36" x2="46" y1="217" style="fill:none;" y2="217" />
      <text xml:space="preserve" x="106" y="217" style="stroke:none;">38,70      txp47</text>
      <line x1="51" x2="66" y1="217" style="fill:none;" y2="217" />
      <line x1="66" x2="96" y1="217" style="fill:none;" y2="217" />
      <line x1="96" x2="101" y1="217" style="fill:none;" y2="217" />
      <line x1="36" x2="46" y1="263" style="fill:none;" y2="263" />
      <text xml:space="preserve" x="106" y="263" style="stroke:none;">46,90      m340355</text>
      <line x1="51" x2="66" y1="263" style="fill:none;" y2="263" />
      <line x1="66" x2="96" y1="263" style="fill:none;" y2="263" />
      <line x1="96" x2="101" y1="263" style="fill:none;" y2="263" />
      <line x1="36" x2="46" y1="286" style="fill:none;" y2="286" />
      <text xml:space="preserve" x="106" y="286" style="stroke:none;">51,01      14/50-339</text>
      <line x1="51" x2="66" y1="286" style="fill:none;" y2="286" />
      <line x1="66" x2="96" y1="286" style="fill:none;" y2="286" />
      <line x1="96" x2="101" y1="286" style="fill:none;" y2="286" />
      <line x1="36" x2="46" y1="339" style="fill:none;" y2="339" />
      <text xml:space="preserve" x="106" y="323" style="stroke:none;">60,51      m341867</text>
      <line x1="51" x2="66" y1="339" style="fill:none;" y2="339" />
      <line x1="66" x2="96" y1="339" style="fill:none;" y2="323" />
      <line x1="96" x2="101" y1="323" style="fill:none;" y2="323" />
      <line x1="36" x2="46" y1="345" style="fill:none;" y2="345" />
      <text xml:space="preserve" x="106" y="334" style="stroke:none;">61,51      msbcir240</text>
      <line x1="51" x2="66" y1="345" style="fill:none;" y2="345" />
      <line x1="66" x2="96" y1="345" style="fill:none;" y2="334" />
      <line x1="96" x2="101" y1="334" style="fill:none;" y2="334" />
      <line x1="36" x2="46" y1="351" style="fill:none;" y2="351" />
      <text xml:space="preserve" x="106" y="346" style="stroke:none;">62,54      cup47</text>
      <line x1="51" x2="66" y1="351" style="fill:none;" y2="351" />
      <line x1="66" x2="96" y1="351" style="fill:none;" y2="346" />
      <line x1="96" x2="101" y1="346" style="fill:none;" y2="346" />
      <line x1="36" x2="46" y1="354" style="fill:none;" y2="354" />
      <text xml:space="preserve" x="106" y="358" style="stroke:none;">63,19      spb9372</text>
      <line x1="51" x2="66" y1="354" style="fill:none;" y2="354" />
      <line x1="66" x2="96" y1="354" style="fill:none;" y2="358" />
      <line x1="96" x2="101" y1="358" style="fill:none;" y2="358" />
      <line x1="36" x2="46" y1="359" style="fill:none;" y2="359" />
      <line x1="36" x2="46" y1="370" style="fill:none;" y2="370" />
      <text xml:space="preserve" x="106" y="371" style="stroke:none;">66,03      spb8081</text>
      <line x1="51" x2="66" y1="370" style="fill:none;" y2="370" />
      <line x1="66" x2="96" y1="370" style="fill:none;" y2="371" />
      <line x1="96" x2="101" y1="371" style="fill:none;" y2="371" />
      <line x1="36" x2="46" y1="408" style="fill:none;" y2="408" />
      <text xml:space="preserve" x="106" y="387" style="stroke:none;">72,77      14/60-282</text>
      <line x1="51" x2="66" y1="408" style="fill:none;" y2="408" />
      <line x1="66" x2="96" y1="408" style="fill:none;" y2="387" />
      <line x1="96" x2="101" y1="387" style="fill:none;" y2="387" />
      <line x1="36" x2="46" y1="415" style="fill:none;" y2="415" />
      <text xml:space="preserve" x="106" y="398" style="stroke:none;">74,07      spb7808</text>
      <line x1="51" x2="66" y1="415" style="fill:none;" y2="415" />
      <line x1="66" x2="96" y1="415" style="fill:none;" y2="398" />
      <line x1="96" x2="101" y1="398" style="fill:none;" y2="398" />
      <line x1="36" x2="46" y1="428" style="fill:none;" y2="428" />
      <text xml:space="preserve" x="106" y="410" style="stroke:none;">76,32      spb5746</text>
      <line x1="51" x2="66" y1="428" style="fill:none;" y2="428" />
      <line x1="66" x2="96" y1="428" style="fill:none;" y2="410" />
      <line x1="96" x2="101" y1="410" style="fill:none;" y2="410" />
      <line x1="36" x2="46" y1="429" style="fill:none;" y2="429" />
      <text xml:space="preserve" x="106" y="422" style="stroke:none;">76,40      umc18</text>
      <line x1="51" x2="66" y1="429" style="fill:none;" y2="429" />
      <line x1="66" x2="96" y1="429" style="fill:none;" y2="422" />
      <line x1="96" x2="101" y1="422" style="fill:none;" y2="422" />
      <line x1="36" x2="46" y1="429" style="fill:none;" y2="429" />
      <line x1="36" x2="46" y1="431" style="fill:none;" y2="431" />
      <line x1="36" x2="46" y1="435" style="fill:none;" y2="435" />
      <text xml:space="preserve" x="106" y="436" style="stroke:none;">77,50      txs1440</text>
      <line x1="51" x2="66" y1="435" style="fill:none;" y2="435" />
      <line x1="66" x2="96" y1="435" style="fill:none;" y2="436" />
      <line x1="96" x2="101" y1="436" style="fill:none;" y2="436" />
      <line x1="36" x2="46" y1="435" style="fill:none;" y2="435" />
      <line x1="36" x2="46" y1="435" style="fill:none;" y2="435" />
      <line x1="36" x2="46" y1="435" style="fill:none;" y2="435" />
      <line x1="36" x2="46" y1="438" style="fill:none;" y2="438" />
      <line x1="36" x2="46" y1="439" style="fill:none;" y2="439" />
      <line x1="36" x2="46" y1="442" style="fill:none;" y2="442" />
      <line x1="36" x2="46" y1="444" style="fill:none;" y2="444" />
      <text xml:space="preserve" x="106" y="454" style="stroke:none;">79,22      spb0580</text>
      <line x1="51" x2="66" y1="444" style="fill:none;" y2="444" />
      <line x1="66" x2="96" y1="444" style="fill:none;" y2="454" />
      <line x1="96" x2="101" y1="454" style="fill:none;" y2="454" />
      <line x1="36" x2="46" y1="447" style="fill:none;" y2="447" />
      <line x1="36" x2="46" y1="450" style="fill:none;" y2="450" />
      <line x1="36" x2="46" y1="450" style="fill:none;" y2="450" />
      <line x1="36" x2="46" y1="457" style="fill:none;" y2="457" />
      <text xml:space="preserve" x="106" y="469" style="stroke:none;">81,51      spb8867</text>
      <line x1="51" x2="66" y1="457" style="fill:none;" y2="457" />
      <line x1="66" x2="96" y1="457" style="fill:none;" y2="469" />
      <line x1="96" x2="101" y1="469" style="fill:none;" y2="469" />
      <line x1="36" x2="46" y1="463" style="fill:none;" y2="463" />
      <line x1="36" x2="46" y1="463" style="fill:none;" y2="463" />
      <line x1="36" x2="46" y1="477" style="fill:none;" y2="477" />
      <text xml:space="preserve" x="106" y="483" style="stroke:none;">85,02      spb9762</text>
      <line x1="51" x2="66" y1="477" style="fill:none;" y2="477" />
      <line x1="66" x2="96" y1="477" style="fill:none;" y2="483" />
      <line x1="96" x2="101" y1="483" style="fill:none;" y2="483" />
      <line x1="36" x2="46" y1="490" style="fill:none;" y2="490" />
      <text xml:space="preserve" x="106" y="495" style="stroke:none;">87,31      m340708</text>
      <line x1="51" x2="66" y1="490" style="fill:none;" y2="490" />
      <line x1="66" x2="96" y1="490" style="fill:none;" y2="495" />
      <line x1="96" x2="101" y1="495" style="fill:none;" y2="495" />
      <line x1="36" x2="46" y1="520" style="fill:none;" y2="520" />
      <text xml:space="preserve" x="106" y="514" style="stroke:none;">92,66      spb2088</text>
      <line x1="51" x2="66" y1="520" style="fill:none;" y2="520" />
      <line x1="66" x2="96" y1="520" style="fill:none;" y2="514" />
      <line x1="96" x2="101" y1="514" style="fill:none;" y2="514" />
      <line x1="36" x2="46" y1="526" style="fill:none;" y2="526" />
      <text xml:space="preserve" x="106" y="525" style="stroke:none;">93,81      spb0258</text>
      <line x1="51" x2="66" y1="526" style="fill:none;" y2="526" />
      <line x1="66" x2="96" y1="526" style="fill:none;" y2="525" />
      <line x1="96" x2="101" y1="525" style="fill:none;" y2="525" />
      <line x1="36" x2="46" y1="539" style="fill:none;" y2="539" />
      <text xml:space="preserve" x="106" y="537" style="stroke:none;">96,01      spb1661</text>
      <line x1="51" x2="66" y1="539" style="fill:none;" y2="539" />
      <line x1="66" x2="96" y1="539" style="fill:none;" y2="537" />
      <line x1="96" x2="101" y1="537" style="fill:none;" y2="537" />
      <line x1="36" x2="46" y1="540" style="fill:none;" y2="540" />
      <text xml:space="preserve" x="106" y="549" style="stroke:none;">96,20      txp354</text>
      <line x1="51" x2="66" y1="540" style="fill:none;" y2="540" />
      <line x1="66" x2="96" y1="540" style="fill:none;" y2="549" />
      <line x1="96" x2="101" y1="549" style="fill:none;" y2="549" />
      <line x1="36" x2="46" y1="557" style="fill:none;" y2="557" />
      <text xml:space="preserve" x="106" y="561" style="stroke:none;">99,20      cdo459</text>
      <line x1="51" x2="66" y1="557" style="fill:none;" y2="557" />
      <line x1="66" x2="96" y1="557" style="fill:none;" y2="561" />
      <line x1="96" x2="101" y1="561" style="fill:none;" y2="561" />
      <line x1="36" x2="46" y1="557" style="fill:none;" y2="557" />
      <text xml:space="preserve" x="106" y="573" style="stroke:none;">99,20      txs2065</text>
      <line x1="51" x2="66" y1="557" style="fill:none;" y2="557" />
      <line x1="66" x2="96" y1="557" style="fill:none;" y2="573" />
      <line x1="96" x2="101" y1="573" style="fill:none;" y2="573" />
      <line x1="36" x2="46" y1="585" style="fill:none;" y2="585" />
      <text xml:space="preserve" x="106" y="585" style="stroke:none;">104,20     txp321</text>
      <line x1="51" x2="66" y1="585" style="fill:none;" y2="585" />
      <line x1="66" x2="96" y1="585" style="fill:none;" y2="585" />
      <line x1="96" x2="101" y1="585" style="fill:none;" y2="585" />
      <line x1="36" x2="46" y1="614" style="fill:none;" y2="614" />
      <text xml:space="preserve" x="106" y="610" style="stroke:none;">109,50     txp18</text>
      <line x1="51" x2="66" y1="614" style="fill:none;" y2="614" />
      <line x1="66" x2="96" y1="614" style="fill:none;" y2="610" />
      <line x1="96" x2="101" y1="610" style="fill:none;" y2="610" />
      <line x1="36" x2="46" y1="619" style="fill:none;" y2="619" />
      <text xml:space="preserve" x="106" y="621" style="stroke:none;">110,35     txp516</text>
      <line x1="51" x2="66" y1="619" style="fill:none;" y2="619" />
      <line x1="66" x2="96" y1="619" style="fill:none;" y2="621" />
      <line x1="96" x2="101" y1="621" style="fill:none;" y2="621" />
      <line x1="36" x2="46" y1="624" style="fill:none;" y2="624" />
      <text xml:space="preserve" x="106" y="633" style="stroke:none;">111,20     txs560</text>
      <line x1="51" x2="66" y1="624" style="fill:none;" y2="624" />
      <line x1="66" x2="96" y1="624" style="fill:none;" y2="633" />
      <line x1="96" x2="101" y1="633" style="fill:none;" y2="633" />
      <line x1="36" x2="46" y1="636" style="fill:none;" y2="636" />
      <text xml:space="preserve" x="106" y="645" style="stroke:none;">113,40     txs1220</text>
      <line x1="51" x2="66" y1="636" style="fill:none;" y2="636" />
      <line x1="66" x2="96" y1="636" style="fill:none;" y2="645" />
      <line x1="96" x2="101" y1="645" style="fill:none;" y2="645" />
      <line x1="36" x2="46" y1="636" style="fill:none;" y2="636" />
      <line x1="36" x2="46" y1="672" style="fill:none;" y2="672" />
      <text xml:space="preserve" x="106" y="671" style="stroke:none;">119,70     spb4546</text>
      <line x1="51" x2="66" y1="672" style="fill:none;" y2="672" />
      <line x1="66" x2="96" y1="672" style="fill:none;" y2="671" />
      <line x1="96" x2="101" y1="671" style="fill:none;" y2="671" />
      <line x1="36" x2="46" y1="680" style="fill:none;" y2="680" />
      <text xml:space="preserve" x="106" y="682" style="stroke:none;">121,12     spb3954</text>
      <line x1="51" x2="66" y1="680" style="fill:none;" y2="680" />
      <line x1="66" x2="96" y1="680" style="fill:none;" y2="682" />
      <line x1="96" x2="101" y1="682" style="fill:none;" y2="682" />
      <line x1="36" x2="46" y1="708" style="fill:none;" y2="708" />
      <text xml:space="preserve" x="106" y="708" style="stroke:none;">126,10     txp105</text>
      <line x1="51" x2="66" y1="708" style="fill:none;" y2="708" />
      <line x1="66" x2="96" y1="708" style="fill:none;" y2="708" />
      <line x1="96" x2="101" y1="708" style="fill:none;" y2="708" />
      <line x1="36" x2="46" y1="746" style="fill:none;" y2="746" />
      <text xml:space="preserve" x="106" y="745" style="stroke:none;">132,90     txs1294</text>
      <line x1="51" x2="66" y1="746" style="fill:none;" y2="746" />
      <line x1="66" x2="96" y1="746" style="fill:none;" y2="745" />
      <line x1="96" x2="101" y1="745" style="fill:none;" y2="745" />
      <line x1="36" x2="46" y1="756" style="fill:none;" y2="756" />
      <text xml:space="preserve" x="106" y="756" style="stroke:none;">134,75     14/48-64</text>
      <line x1="51" x2="66" y1="756" style="fill:none;" y2="756" />
      <line x1="66" x2="96" y1="756" style="fill:none;" y2="756" />
      <line x1="96" x2="101" y1="756" style="fill:none;" y2="756" />
      <line x1="36" x2="46" y1="784" style="fill:none;" y2="784" />
      <text xml:space="preserve" x="106" y="784" style="stroke:none;">139,63     spb5572</text>
      <line x1="51" x2="66" y1="784" style="fill:none;" y2="784" />
      <line x1="66" x2="96" y1="784" style="fill:none;" y2="784" />
      <line x1="96" x2="101" y1="784" style="fill:none;" y2="784" />
      <line x1="36" x2="46" y1="804" style="fill:none;" y2="804" />
      <text xml:space="preserve" x="106" y="799" style="stroke:none;">143,30     txs1353</text>
      <line x1="51" x2="66" y1="804" style="fill:none;" y2="804" />
      <line x1="66" x2="96" y1="804" style="fill:none;" y2="799" />
      <line x1="96" x2="101" y1="799" style="fill:none;" y2="799" />
      <line x1="36" x2="46" y1="804" style="fill:none;" y2="804" />
      <text xml:space="preserve" x="106" y="810" style="stroke:none;">143,30     isu146</text>
      <line x1="51" x2="66" y1="804" style="fill:none;" y2="804" />
      <line x1="66" x2="96" y1="804" style="fill:none;" y2="810" />
      <line x1="96" x2="101" y1="810" style="fill:none;" y2="810" />
      <line x1="36" x2="46" y1="809" style="fill:none;" y2="809" />
      <text xml:space="preserve" x="106" y="822" style="stroke:none;">144,10     spb1051</text>
      <line x1="51" x2="66" y1="809" style="fill:none;" y2="809" />
      <line x1="66" x2="96" y1="809" style="fill:none;" y2="822" />
      <line x1="96" x2="101" y1="822" style="fill:none;" y2="822" />
      <line x1="36" x2="46" y1="811" style="fill:none;" y2="811" />
      <line x1="36" x2="46" y1="826" style="fill:none;" y2="826" />
      <text xml:space="preserve" x="106" y="835" style="stroke:none;">147,10     gap34</text>
      <line x1="51" x2="66" y1="826" style="fill:none;" y2="826" />
      <line x1="66" x2="96" y1="826" style="fill:none;" y2="835" />
      <line x1="96" x2="101" y1="835" style="fill:none;" y2="835" />
      <line x1="36" x2="46" y1="840" style="fill:none;" y2="840" />
      <text xml:space="preserve" x="106" y="847" style="stroke:none;">149,57     m341756</text>
      <line x1="51" x2="66" y1="840" style="fill:none;" y2="840" />
      <line x1="66" x2="96" y1="840" style="fill:none;" y2="847" />
      <line x1="96" x2="101" y1="847" style="fill:none;" y2="847" />
      <line x1="12" x2="14" y1="365" style="fill:rgb(51,51,0); stroke:none;" y2="365" />
      <text x="0" y="0" transform="translate(12,365) rotate(-90)" style="fill:rgb(51,51,0); stroke:none;" xml:space="preserve"></text>
      <line x1="12" x2="14" y1="365" style="fill:rgb(255,102,0); stroke:none;" y2="365" />
      <text x="0" y="0" transform="translate(12,365) rotate(-90)" style="fill:rgb(255,102,0); stroke:none;" xml:space="preserve"></text>
      <rect x="9" y="398" width="3" style="fill:rgb(153,51,0); stroke:none;" height="1" />
      <line x1="24" x2="26" y1="364" style="fill:rgb(51,51,0); stroke:none;" y2="364" />
      <text x="0" y="0" transform="translate(24,364) rotate(-90)" style="fill:rgb(51,51,0); stroke:none;" xml:space="preserve"></text>
      <line x1="24" x2="26" y1="364" style="fill:rgb(255,102,0); stroke:none;" y2="364" />
      <text x="0" y="0" transform="translate(24,364) rotate(-90)" style="fill:rgb(255,102,0); stroke:none;" xml:space="preserve"></text>
      <rect x="22" y="398" width="2" style="fill:rgb(153,51,0); stroke:none;" height="1" />
      <rect x="0" y="281" width="2" style="fill:rgb(51,51,0); stroke:none;" height="274" />
      <text x="0" y="0" transform="translate(0,281) rotate(-90)" style="fill:rgb(51,51,0); stroke:none;" xml:space="preserve"></text>
      <rect x="0" y="555" width="2" style="fill:rgb(255,102,0); stroke:none;" height="285" />
      <text x="0" y="0" transform="translate(0,555) rotate(-90)" style="fill:rgb(255,102,0); stroke:none;" xml:space="preserve"></text>
      <rect x="-1" y="572" width="1" style="fill:rgb(153,51,0); stroke:none;" height="1" />
      <line x1="12" x2="14" y1="709" style="fill:rgb(51,51,0); stroke:none;" y2="709" />
      <text x="0" y="0" transform="translate(12,709) rotate(-90)" style="fill:rgb(51,51,0); stroke:none;" xml:space="preserve"></text>
      <line x1="12" x2="14" y1="709" style="fill:rgb(255,102,0); stroke:none;" y2="709" />
      <text x="0" y="0" transform="translate(12,709) rotate(-90)" style="fill:rgb(255,102,0); stroke:none;" xml:space="preserve"></text>
      <rect x="9" y="739" width="3" style="fill:rgb(153,51,0); stroke:none;" height="1" />
      <line x1="24" x2="26" y1="701" style="fill:rgb(51,51,0); stroke:none;" y2="701" />
      <text x="0" y="0" transform="translate(24,701) rotate(-90)" style="fill:rgb(51,51,0); stroke:none;" xml:space="preserve"></text>
      <line x1="24" x2="26" y1="701" style="fill:rgb(255,102,0); stroke:none;" y2="701" />
      <text x="0" y="0" transform="translate(24,701) rotate(-90)" style="fill:rgb(255,102,0); stroke:none;" xml:space="preserve"></text>
      <rect x="22" y="739" width="2" style="fill:rgb(153,51,0); stroke:none;" height="1" />
    </g>
    <g transform="translate(20,20)" style="font-size:11; fill-opacity:0.5569; fill:rgb(51,51,0); text-rendering:optimizeLegibility; font-family:&apos;Monospaced&apos;; stroke:rgb(51,51,0); stroke-opacity:0.5569;">
      <rect x="37" y="370" width="9" style="stroke:none;" height="58" />
      <rect x="37" y="719" width="9" style="fill:rgb(255,102,0); stroke:none;" height="39" />
    </g>
    <g style="text-rendering:optimizeLegibility; font-size:11; font-family:&apos;Monospaced&apos;;" transform="translate(322,20)">
      <line x1="36" x2="36" y1="0" style="fill:none;" y2="840" />
      <line x1="46" x2="46" y1="0" style="fill:none;" y2="840" />
      <path d="M46 0.5 A5 7.5 0 0 0 36 0.5" style="fill:none;" />
      <path d="M46 840.5 A5 7.5 0 0 1 36 840.5" style="fill:none;" />
      <text x="0" y="0" transform="translate(19,860)" style="stroke:none;" xml:space="preserve">SBI-08</text>
      <rect x="-9" y="866" width="100" style="fill:none;" rx="5" ry="5" height="4" />
    </g>
    <g transform="translate(322,20)" style="font-size:11; fill-opacity:0.7843; fill:rgb(100,100,100); text-rendering:optimizeLegibility; font-family:&apos;Monospaced&apos;; stroke:rgb(100,100,100); stroke-opacity:0.7843;">
      <rect x="-9" y="864" width="100" style="fill:none;" rx="5" ry="5" height="8" />
    </g>
    <g style="text-rendering:optimizeLegibility; font-size:11; font-family:&apos;Monospaced&apos;;" transform="translate(322,20)">
      <line x1="36" x2="46" y1="0" style="fill:none;" y2="0" />
      <text xml:space="preserve" x="106" y="0" style="stroke:none;">0,00       txp273</text>
      <line x1="51" x2="66" y1="0" style="fill:none;" y2="0" />
      <line x1="66" x2="96" y1="0" style="fill:none;" y2="0" />
      <line x1="96" x2="101" y1="0" style="fill:none;" y2="0" />
      <line x1="36" x2="46" y1="68" style="fill:none;" y2="68" />
      <text xml:space="preserve" x="106" y="67" style="stroke:none;">12,28      spb6248</text>
      <line x1="51" x2="66" y1="68" style="fill:none;" y2="68" />
      <line x1="66" x2="96" y1="68" style="fill:none;" y2="67" />
      <line x1="96" x2="101" y1="67" style="fill:none;" y2="67" />
      <line x1="36" x2="46" y1="76" style="fill:none;" y2="76" />
      <text xml:space="preserve" x="106" y="78" style="stroke:none;">13,68      spb2956</text>
      <line x1="51" x2="66" y1="76" style="fill:none;" y2="76" />
      <line x1="66" x2="96" y1="76" style="fill:none;" y2="78" />
      <line x1="96" x2="101" y1="78" style="fill:none;" y2="78" />
      <line x1="36" x2="46" y1="118" style="fill:none;" y2="118" />
      <text xml:space="preserve" x="106" y="116" style="stroke:none;">21,06      spb6589</text>
      <line x1="51" x2="66" y1="118" style="fill:none;" y2="118" />
      <line x1="66" x2="96" y1="118" style="fill:none;" y2="116" />
      <line x1="96" x2="101" y1="116" style="fill:none;" y2="116" />
      <line x1="36" x2="46" y1="132" style="fill:none;" y2="132" />
      <text xml:space="preserve" x="106" y="130" style="stroke:none;">23,62      spb0703</text>
      <line x1="51" x2="66" y1="132" style="fill:none;" y2="132" />
      <line x1="66" x2="96" y1="132" style="fill:none;" y2="130" />
      <line x1="96" x2="101" y1="130" style="fill:none;" y2="130" />
      <line x1="36" x2="46" y1="138" style="fill:none;" y2="138" />
      <text xml:space="preserve" x="106" y="141" style="stroke:none;">24,68      m341800</text>
      <line x1="51" x2="66" y1="138" style="fill:none;" y2="138" />
      <line x1="66" x2="96" y1="138" style="fill:none;" y2="141" />
      <line x1="96" x2="101" y1="141" style="fill:none;" y2="141" />
      <line x1="36" x2="46" y1="147" style="fill:none;" y2="147" />
      <text xml:space="preserve" x="106" y="153" style="stroke:none;">26,30      bnl304</text>
      <line x1="51" x2="66" y1="147" style="fill:none;" y2="147" />
      <line x1="66" x2="96" y1="147" style="fill:none;" y2="153" />
      <line x1="96" x2="101" y1="153" style="fill:none;" y2="153" />
      <line x1="36" x2="46" y1="174" style="fill:none;" y2="174" />
      <text xml:space="preserve" x="106" y="174" style="stroke:none;">31,05      spb0763</text>
      <line x1="51" x2="66" y1="174" style="fill:none;" y2="174" />
      <line x1="66" x2="96" y1="174" style="fill:none;" y2="174" />
      <line x1="96" x2="101" y1="174" style="fill:none;" y2="174" />
      <line x1="36" x2="46" y1="187" style="fill:none;" y2="187" />
      <text xml:space="preserve" x="106" y="187" style="stroke:none;">33,42      spb1130</text>
      <line x1="51" x2="66" y1="187" style="fill:none;" y2="187" />
      <line x1="66" x2="96" y1="187" style="fill:none;" y2="187" />
      <line x1="96" x2="101" y1="187" style="fill:none;" y2="187" />
      <line x1="36" x2="46" y1="217" style="fill:none;" y2="217" />
      <text xml:space="preserve" x="106" y="217" style="stroke:none;">38,70      txp47</text>
      <line x1="51" x2="66" y1="217" style="fill:none;" y2="217" />
      <line x1="66" x2="96" y1="217" style="fill:none;" y2="217" />
      <line x1="96" x2="101" y1="217" style="fill:none;" y2="217" />
      <line x1="36" x2="46" y1="263" style="fill:none;" y2="263" />
      <text xml:space="preserve" x="106" y="263" style="stroke:none;">46,90      m340355</text>
      <line x1="51" x2="66" y1="263" style="fill:none;" y2="263" />
      <line x1="66" x2="96" y1="263" style="fill:none;" y2="263" />
      <line x1="96" x2="101" y1="263" style="fill:none;" y2="263" />
      <line x1="36" x2="46" y1="286" style="fill:none;" y2="286" />
      <text xml:space="preserve" x="106" y="286" style="stroke:none;">51,01      14/50-339</text>
      <line x1="51" x2="66" y1="286" style="fill:none;" y2="286" />
      <line x1="66" x2="96" y1="286" style="fill:none;" y2="286" />
      <line x1="96" x2="101" y1="286" style="fill:none;" y2="286" />
      <line x1="36" x2="46" y1="339" style="fill:none;" y2="339" />
      <text xml:space="preserve" x="106" y="323" style="stroke:none;">60,51      m341867</text>
      <line x1="51" x2="66" y1="339" style="fill:none;" y2="339" />
      <line x1="66" x2="96" y1="339" style="fill:none;" y2="323" />
      <line x1="96" x2="101" y1="323" style="fill:none;" y2="323" />
      <line x1="36" x2="46" y1="345" style="fill:none;" y2="345" />
      <text xml:space="preserve" x="106" y="334" style="stroke:none;">61,51      msbcir240</text>
      <line x1="51" x2="66" y1="345" style="fill:none;" y2="345" />
      <line x1="66" x2="96" y1="345" style="fill:none;" y2="334" />
      <line x1="96" x2="101" y1="334" style="fill:none;" y2="334" />
      <line x1="36" x2="46" y1="351" style="fill:none;" y2="351" />
      <text xml:space="preserve" x="106" y="346" style="stroke:none;">62,54      cup47</text>
      <line x1="51" x2="66" y1="351" style="fill:none;" y2="351" />
      <line x1="66" x2="96" y1="351" style="fill:none;" y2="346" />
      <line x1="96" x2="101" y1="346" style="fill:none;" y2="346" />
      <line x1="36" x2="46" y1="354" style="fill:none;" y2="354" />
      <text xml:space="preserve" x="106" y="358" style="stroke:none;">63,19      spb9372</text>
      <line x1="51" x2="66" y1="354" style="fill:none;" y2="354" />
      <line x1="66" x2="96" y1="354" style="fill:none;" y2="358" />
      <line x1="96" x2="101" y1="358" style="fill:none;" y2="358" />
      <line x1="36" x2="46" y1="359" style="fill:none;" y2="359" />
      <line x1="36" x2="46" y1="370" style="fill:none;" y2="370" />
      <text xml:space="preserve" x="106" y="371" style="stroke:none;">66,03      spb8081</text>
      <line x1="51" x2="66" y1="370" style="fill:none;" y2="370" />
      <line x1="66" x2="96" y1="370" style="fill:none;" y2="371" />
      <line x1="96" x2="101" y1="371" style="fill:none;" y2="371" />
      <line x1="36" x2="46" y1="408" style="fill:none;" y2="408" />
      <text xml:space="preserve" x="106" y="387" style="stroke:none;">72,77      14/60-282</text>
      <line x1="51" x2="66" y1="408" style="fill:none;" y2="408" />
      <line x1="66" x2="96" y1="408" style="fill:none;" y2="387" />
      <line x1="96" x2="101" y1="387" style="fill:none;" y2="387" />
      <line x1="36" x2="46" y1="415" style="fill:none;" y2="415" />
      <text xml:space="preserve" x="106" y="398" style="stroke:none;">74,07      spb7808</text>
      <line x1="51" x2="66" y1="415" style="fill:none;" y2="415" />
      <line x1="66" x2="96" y1="415" style="fill:none;" y2="398" />
      <line x1="96" x2="101" y1="398" style="fill:none;" y2="398" />
      <line x1="36" x2="46" y1="428" style="fill:none;" y2="428" />
      <text xml:space="preserve" x="106" y="410" style="stroke:none;">76,32      spb5746</text>
      <line x1="51" x2="66" y1="428" style="fill:none;" y2="428" />
      <line x1="66" x2="96" y1="428" style="fill:none;" y2="410" />
      <line x1="96" x2="101" y1="410" style="fill:none;" y2="410" />
      <line x1="36" x2="46" y1="429" style="fill:none;" y2="429" />
      <text xml:space="preserve" x="106" y="422" style="stroke:none;">76,40      umc18</text>
      <line x1="51" x2="66" y1="429" style="fill:none;" y2="429" />
      <line x1="66" x2="96" y1="429" style="fill:none;" y2="422" />
      <line x1="96" x2="101" y1="422" style="fill:none;" y2="422" />
      <line x1="36" x2="46" y1="429" style="fill:none;" y2="429" />
      <line x1="36" x2="46" y1="431" style="fill:none;" y2="431" />
      <line x1="36" x2="46" y1="435" style="fill:none;" y2="435" />
      <text xml:space="preserve" x="106" y="436" style="stroke:none;">77,50      txs1440</text>
      <line x1="51" x2="66" y1="435" style="fill:none;" y2="435" />
      <line x1="66" x2="96" y1="435" style="fill:none;" y2="436" />
      <line x1="96" x2="101" y1="436" style="fill:none;" y2="436" />
      <line x1="36" x2="46" y1="435" style="fill:none;" y2="435" />
      <line x1="36" x2="46" y1="435" style="fill:none;" y2="435" />
      <line x1="36" x2="46" y1="435" style="fill:none;" y2="435" />
      <line x1="36" x2="46" y1="438" style="fill:none;" y2="438" />
      <line x1="36" x2="46" y1="439" style="fill:none;" y2="439" />
      <line x1="36" x2="46" y1="442" style="fill:none;" y2="442" />
      <line x1="36" x2="46" y1="444" style="fill:none;" y2="444" />
      <text xml:space="preserve" x="106" y="454" style="stroke:none;">79,22      spb0580</text>
      <line x1="51" x2="66" y1="444" style="fill:none;" y2="444" />
      <line x1="66" x2="96" y1="444" style="fill:none;" y2="454" />
      <line x1="96" x2="101" y1="454" style="fill:none;" y2="454" />
      <line x1="36" x2="46" y1="447" style="fill:none;" y2="447" />
      <line x1="36" x2="46" y1="450" style="fill:none;" y2="450" />
      <line x1="36" x2="46" y1="450" style="fill:none;" y2="450" />
      <line x1="36" x2="46" y1="457" style="fill:none;" y2="457" />
      <text xml:space="preserve" x="106" y="469" style="stroke:none;">81,51      spb8867</text>
      <line x1="51" x2="66" y1="457" style="fill:none;" y2="457" />
      <line x1="66" x2="96" y1="457" style="fill:none;" y2="469" />
      <line x1="96" x2="101" y1="469" style="fill:none;" y2="469" />
      <line x1="36" x2="46" y1="463" style="fill:none;" y2="463" />
      <line x1="36" x2="46" y1="463" style="fill:none;" y2="463" />
      <line x1="36" x2="46" y1="477" style="fill:none;" y2="477" />
      <text xml:space="preserve" x="106" y="483" style="stroke:none;">85,02      spb9762</text>
      <line x1="51" x2="66" y1="477" style="fill:none;" y2="477" />
      <line x1="66" x2="96" y1="477" style="fill:none;" y2="483" />
      <line x1="96" x2="101" y1="483" style="fill:none;" y2="483" />
      <line x1="36" x2="46" y1="490" style="fill:none;" y2="490" />
      <text xml:space="preserve" x="106" y="495" style="stroke:none;">87,31      m340708</text>
      <line x1="51" x2="66" y1="490" style="fill:none;" y2="490" />
      <line x1="66" x2="96" y1="490" style="fill:none;" y2="495" />
      <line x1="96" x2="101" y1="495" style="fill:none;" y2="495" />
      <line x1="36" x2="46" y1="520" style="fill:none;" y2="520" />
      <text xml:space="preserve" x="106" y="514" style="stroke:none;">92,66      spb2088</text>
      <line x1="51" x2="66" y1="520" style="fill:none;" y2="520" />
      <line x1="66" x2="96" y1="520" style="fill:none;" y2="514" />
      <line x1="96" x2="101" y1="514" style="fill:none;" y2="514" />
      <line x1="36" x2="46" y1="526" style="fill:none;" y2="526" />
      <text xml:space="preserve" x="106" y="525" style="stroke:none;">93,81      spb0258</text>
      <line x1="51" x2="66" y1="526" style="fill:none;" y2="526" />
      <line x1="66" x2="96" y1="526" style="fill:none;" y2="525" />
      <line x1="96" x2="101" y1="525" style="fill:none;" y2="525" />
      <line x1="36" x2="46" y1="539" style="fill:none;" y2="539" />
      <text xml:space="preserve" x="106" y="537" style="stroke:none;">96,01      spb1661</text>
      <line x1="51" x2="66" y1="539" style="fill:none;" y2="539" />
      <line x1="66" x2="96" y1="539" style="fill:none;" y2="537" />
      <line x1="96" x2="101" y1="537" style="fill:none;" y2="537" />
      <line x1="36" x2="46" y1="540" style="fill:none;" y2="540" />
      <text xml:space="preserve" x="106" y="549" style="stroke:none;">96,20      txp354</text>
      <line x1="51" x2="66" y1="540" style="fill:none;" y2="540" />
      <line x1="66" x2="96" y1="540" style="fill:none;" y2="549" />
      <line x1="96" x2="101" y1="549" style="fill:none;" y2="549" />
      <line x1="36" x2="46" y1="557" style="fill:none;" y2="557" />
      <text xml:space="preserve" x="106" y="561" style="stroke:none;">99,20      cdo459</text>
      <line x1="51" x2="66" y1="557" style="fill:none;" y2="557" />
      <line x1="66" x2="96" y1="557" style="fill:none;" y2="561" />
      <line x1="96" x2="101" y1="561" style="fill:none;" y2="561" />
      <line x1="36" x2="46" y1="557" style="fill:none;" y2="557" />
      <text xml:space="preserve" x="106" y="573" style="stroke:none;">99,20      txs2065</text>
      <line x1="51" x2="66" y1="557" style="fill:none;" y2="557" />
      <line x1="66" x2="96" y1="557" style="fill:none;" y2="573" />
      <line x1="96" x2="101" y1="573" style="fill:none;" y2="573" />
      <line x1="36" x2="46" y1="585" style="fill:none;" y2="585" />
      <text xml:space="preserve" x="106" y="585" style="stroke:none;">104,20     txp321</text>
      <line x1="51" x2="66" y1="585" style="fill:none;" y2="585" />
      <line x1="66" x2="96" y1="585" style="fill:none;" y2="585" />
      <line x1="96" x2="101" y1="585" style="fill:none;" y2="585" />
      <line x1="36" x2="46" y1="614" style="fill:none;" y2="614" />
      <text xml:space="preserve" x="106" y="610" style="stroke:none;">109,50     txp18</text>
      <line x1="51" x2="66" y1="614" style="fill:none;" y2="614" />
      <line x1="66" x2="96" y1="614" style="fill:none;" y2="610" />
      <line x1="96" x2="101" y1="610" style="fill:none;" y2="610" />
      <line x1="36" x2="46" y1="619" style="fill:none;" y2="619" />
      <text xml:space="preserve" x="106" y="621" style="stroke:none;">110,35     txp516</text>
      <line x1="51" x2="66" y1="619" style="fill:none;" y2="619" />
      <line x1="66" x2="96" y1="619" style="fill:none;" y2="621" />
      <line x1="96" x2="101" y1="621" style="fill:none;" y2="621" />
      <line x1="36" x2="46" y1="624" style="fill:none;" y2="624" />
      <text xml:space="preserve" x="106" y="633" style="stroke:none;">111,20     txs560</text>
      <line x1="51" x2="66" y1="624" style="fill:none;" y2="624" />
      <line x1="66" x2="96" y1="624" style="fill:none;" y2="633" />
      <line x1="96" x2="101" y1="633" style="fill:none;" y2="633" />
      <line x1="36" x2="46" y1="636" style="fill:none;" y2="636" />
      <text xml:space="preserve" x="106" y="645" style="stroke:none;">113,40     txs1220</text>
      <line x1="51" x2="66" y1="636" style="fill:none;" y2="636" />
      <line x1="66" x2="96" y1="636" style="fill:none;" y2="645" />
      <line x1="96" x2="101" y1="645" style="fill:none;" y2="645" />
      <line x1="36" x2="46" y1="636" style="fill:none;" y2="636" />
      <line x1="36" x2="46" y1="672" style="fill:none;" y2="672" />
      <text xml:space="preserve" x="106" y="671" style="stroke:none;">119,70     spb4546</text>
      <line x1="51" x2="66" y1="672" style="fill:none;" y2="672" />
      <line x1="66" x2="96" y1="672" style="fill:none;" y2="671" />
      <line x1="96" x2="101" y1="671" style="fill:none;" y2="671" />
      <line x1="36" x2="46" y1="680" style="fill:none;" y2="680" />
      <text xml:space="preserve" x="106" y="682" style="stroke:none;">121,12     spb3954</text>
      <line x1="51" x2="66" y1="680" style="fill:none;" y2="680" />
      <line x1="66" x2="96" y1="680" style="fill:none;" y2="682" />
      <line x1="96" x2="101" y1="682" style="fill:none;" y2="682" />
      <line x1="36" x2="46" y1="708" style="fill:none;" y2="708" />
      <text xml:space="preserve" x="106" y="708" style="stroke:none;">126,10     txp105</text>
      <line x1="51" x2="66" y1="708" style="fill:none;" y2="708" />
      <line x1="66" x2="96" y1="708" style="fill:none;" y2="708" />
      <line x1="96" x2="101" y1="708" style="fill:none;" y2="708" />
      <line x1="36" x2="46" y1="746" style="fill:none;" y2="746" />
      <text xml:space="preserve" x="106" y="745" style="stroke:none;">132,90     txs1294</text>
      <line x1="51" x2="66" y1="746" style="fill:none;" y2="746" />
      <line x1="66" x2="96" y1="746" style="fill:none;" y2="745" />
      <line x1="96" x2="101" y1="745" style="fill:none;" y2="745" />
      <line x1="36" x2="46" y1="756" style="fill:none;" y2="756" />
      <text xml:space="preserve" x="106" y="756" style="stroke:none;">134,75     14/48-64</text>
      <line x1="51" x2="66" y1="756" style="fill:none;" y2="756" />
      <line x1="66" x2="96" y1="756" style="fill:none;" y2="756" />
      <line x1="96" x2="101" y1="756" style="fill:none;" y2="756" />
      <line x1="36" x2="46" y1="784" style="fill:none;" y2="784" />
      <text xml:space="preserve" x="106" y="784" style="stroke:none;">139,63     spb5572</text>
      <line x1="51" x2="66" y1="784" style="fill:none;" y2="784" />
      <line x1="66" x2="96" y1="784" style="fill:none;" y2="784" />
      <line x1="96" x2="101" y1="784" style="fill:none;" y2="784" />
      <line x1="36" x2="46" y1="804" style="fill:none;" y2="804" />
      <text xml:space="preserve" x="106" y="799" style="stroke:none;">143,30     txs1353</text>
      <line x1="51" x2="66" y1="804" style="fill:none;" y2="804" />
      <line x1="66" x2="96" y1="804" style="fill:none;" y2="799" />
      <line x1="96" x2="101" y1="799" style="fill:none;" y2="799" />
      <line x1="36" x2="46" y1="804" style="fill:none;" y2="804" />
      <text xml:space="preserve" x="106" y="810" style="stroke:none;">143,30     isu146</text>
      <line x1="51" x2="66" y1="804" style="fill:none;" y2="804" />
      <line x1="66" x2="96" y1="804" style="fill:none;" y2="810" />
      <line x1="96" x2="101" y1="810" style="fill:none;" y2="810" />
      <line x1="36" x2="46" y1="809" style="fill:none;" y2="809" />
      <text xml:space="preserve" x="106" y="822" style="stroke:none;">144,10     spb1051</text>
      <line x1="51" x2="66" y1="809" style="fill:none;" y2="809" />
      <line x1="66" x2="96" y1="809" style="fill:none;" y2="822" />
      <line x1="96" x2="101" y1="822" style="fill:none;" y2="822" />
      <line x1="36" x2="46" y1="811" style="fill:none;" y2="811" />
      <line x1="36" x2="46" y1="826" style="fill:none;" y2="826" />
      <text xml:space="preserve" x="106" y="835" style="stroke:none;">147,10     gap34</text>
      <line x1="51" x2="66" y1="826" style="fill:none;" y2="826" />
      <line x1="66" x2="96" y1="826" style="fill:none;" y2="835" />
      <line x1="96" x2="101" y1="835" style="fill:none;" y2="835" />
      <line x1="36" x2="46" y1="840" style="fill:none;" y2="840" />
      <text xml:space="preserve" x="106" y="847" style="stroke:none;">149,57     m341756</text>
      <line x1="51" x2="66" y1="840" style="fill:none;" y2="840" />
      <line x1="66" x2="96" y1="840" style="fill:none;" y2="847" />
      <line x1="96" x2="101" y1="847" style="fill:none;" y2="847" />
      <rect x="12" y="365" width="2" style="fill:rgb(153,51,0); stroke:none;" height="67" />
      <text x="0" y="0" transform="translate(12,365) rotate(-90)" style="fill:rgb(153,51,0); stroke:none;" xml:space="preserve"></text>
      <rect x="9" y="398" width="3" style="fill:rgb(153,51,0); stroke:none;" height="1" />
      <rect x="24" y="364" width="2" style="fill:rgb(153,51,0); stroke:none;" height="68" />
      <text x="0" y="0" transform="translate(24,364) rotate(-90)" style="fill:rgb(153,51,0); stroke:none;" xml:space="preserve"></text>
      <rect x="22" y="398" width="2" style="fill:rgb(153,51,0); stroke:none;" height="1" />
      <rect x="0" y="281" width="2" style="fill:rgb(153,51,0); stroke:none;" height="558" />
      <text x="0" y="0" transform="translate(0,281) rotate(-90)" style="fill:rgb(153,51,0); stroke:none;" xml:space="preserve"></text>
      <rect x="-1" y="572" width="1" style="fill:rgb(153,51,0); stroke:none;" height="1" />
      <rect x="12" y="709" width="2" style="fill:rgb(153,51,0); stroke:none;" height="61" />
      <text x="0" y="0" transform="translate(12,709) rotate(-90)" style="fill:rgb(153,51,0); stroke:none;" xml:space="preserve"></text>
      <rect x="9" y="739" width="3" style="fill:rgb(153,51,0); stroke:none;" height="1" />
      <rect x="24" y="701" width="2" style="fill:rgb(153,51,0); stroke:none;" height="76" />
      <text x="0" y="0" transform="translate(24,701) rotate(-90)" style="fill:rgb(153,51,0); stroke:none;" xml:space="preserve"></text>
      <rect x="22" y="739" width="2" style="fill:rgb(153,51,0); stroke:none;" height="1" />
    </g>
  </g>
</svg>
